<svg xmlns="http://www.w3.org/2000/svg" viewBox="0 0 340 96" width="340" height="96">
  <!-- aerie: nest + soaring bird mark; wordmark is SF Pro Display rendered
       to outlines via CoreText (no font dependency for viewers) -->
  <style>
    .word { fill: #1d1d1f; }
    @media (prefers-color-scheme: dark) { .word { fill: #f5f5f7; } }
  </style>
  <g fill="#E07A50">
    <!-- soaring bird -->
    <path d="M20 22 C26 14 34 13 38 18 C42 13 50 14 56 22 C50 18 43 18 38 23 C33 18 26 18 20 22 Z"/>
    <!-- nest: woven arcs + bowl -->
    <path d="M18 52 C24 46 52 46 58 52 L56 56 C48 51 28 51 20 56 Z"/>
    <path d="M14 60 C22 53 54 53 62 60 L60 64 C50 58 26 58 16 64 Z"/>
    <path d="M20 68 C26 63 50 63 56 68 C54 76 46 82 38 82 C30 82 22 76 20 68 Z"/>
  </g>
  <g class="word" transform="translate(88, 14)">
    <path d="M19.55 67.22C26.06 67.22 31.92 63.70 34.78 58.36L34.97 58.36L34.97 66.28L43.12 66.28L43.12 32.58C43.12 22.83 35.91 16.59 24.38 16.59C12.89 16.59 5.91 23.06 5.20 31.08L5.16 31.59L13.03 31.59L13.12 31.17C14.06 26.81 18.00 23.81 24.28 23.81C31.08 23.81 34.97 27.42 34.97 33.38L34.97 37.45L21.00 38.25C9.80 38.91 3.33 44.11 3.33 52.41L3.33 52.50C3.33 61.36 9.84 67.22 19.55 67.22ZM11.67 52.50L11.67 52.41C11.67 47.86 15.42 44.95 21.94 44.58L34.97 43.78L34.97 47.77C34.97 54.84 29.06 60.14 21.38 60.14C15.52 60.14 11.67 57.19 11.67 52.50ZM74.55 67.22C85.19 67.22 93.16 60.84 94.75 52.78L94.84 52.31L86.83 52.31L86.69 52.73C85.28 56.91 80.92 60.00 74.73 60.00C66.06 60.00 60.53 54.14 60.34 44.11L95.45 44.11L95.45 41.11C95.45 26.48 87.34 16.59 74.03 16.59C60.72 16.59 52.09 26.95 52.09 42.05L52.09 42.09C52.09 57.42 60.53 67.22 74.55 67.22ZM73.98 23.81C81.11 23.81 86.36 28.27 87.16 37.73L60.48 37.73C61.38 28.64 66.91 23.81 73.98 23.81ZM104.66 66.28L112.81 66.28L112.81 36.19C112.81 28.78 116.94 24.38 123.27 24.38C125.23 24.38 126.97 24.61 127.62 24.84L127.62 16.92C126.97 16.83 125.75 16.59 124.34 16.59C118.86 16.59 114.64 20.16 113.00 25.78L112.81 25.78L112.81 17.53L104.66 17.53ZM139.83 9.28C142.69 9.28 144.94 6.98 144.94 4.17C144.94 1.31 142.69 -0.94 139.83 -0.94C137.02 -0.94 134.72 1.31 134.72 4.17C134.72 6.98 137.02 9.28 139.83 9.28ZM135.75 66.28L143.91 66.28L143.91 17.53L135.75 17.53ZM176.08 67.22C186.72 67.22 194.69 60.84 196.28 52.78L196.38 52.31L188.36 52.31L188.22 52.73C186.81 56.91 182.45 60.00 176.27 60.00C167.59 60.00 162.06 54.14 161.88 44.11L196.98 44.11L196.98 41.11C196.98 26.48 188.88 16.59 175.56 16.59C162.25 16.59 153.62 26.95 153.62 42.05L153.62 42.09C153.62 57.42 162.06 67.22 176.08 67.22ZM175.52 23.81C182.64 23.81 187.89 28.27 188.69 37.73L162.02 37.73C162.91 28.64 168.44 23.81 175.52 23.81Z"/>
  </g>
</svg>
